<?xml version="1.0" standalone="no"?><!DOCTYPE svg PUBLIC "-//W3C//DTD SVG 1.1//EN" "http://www.w3.org/Graphics/SVG/1.1/DTD/svg11.dtd"><svg t="1751187091109" class="icon" viewBox="0 0 1024 1024" version="1.1" xmlns="http://www.w3.org/2000/svg" p-id="68708" xmlns:xlink="http://www.w3.org/1999/xlink" width="256" height="256"><path d="M512 78.769231c238.276923 0 433.230769 194.953846 433.230769 433.230769s-194.953846 433.230769-433.230769 433.230769S78.769231 750.276923 78.769231 512 273.723077 78.769231 512 78.769231m0-39.384616C250.092308 39.384615 39.384615 250.092308 39.384615 512s210.707692 472.615385 472.615385 472.615385 472.615385-210.707692 472.615385-472.615385S773.907692 39.384615 512 39.384615z" p-id="68709" fill="#ffffff"></path><path d="M393.846154 728.615385c-55.138462 0-98.461538-43.323077-98.461539-98.461539V433.230769c0-11.815385 7.876923-19.692308 19.692308-19.692307s19.692308 7.876923 19.692308 19.692307v196.923077c0 33.476923 25.6 59.076923 59.076923 59.076923s59.076923-25.6 59.076923-59.076923-25.6-59.076923-59.076923-59.076923c-11.815385 0-19.692308-7.876923-19.692308-19.692308s7.876923-19.692308 19.692308-19.692307c55.138462 0 98.461538 43.323077 98.461538 98.461538s-43.323077 98.461538-98.461538 98.461539z m216.615384-98.461539c0-120.123077-96.492308-216.615385-216.615384-216.615384-11.815385 0-19.692308 7.876923-19.692308 19.692307s7.876923 19.692308 19.692308 19.692308c98.461538 0 177.230769 78.769231 177.230769 177.230769 0 11.815385 7.876923 19.692308 19.692308 19.692308s19.692308-7.876923 19.692307-19.692308z m137.846154 0c0-194.953846-159.507692-354.461538-354.461538-354.461538-11.815385 0-19.692308 7.876923-19.692308 19.692307s7.876923 19.692308 19.692308 19.692308c173.292308 0 315.076923 141.784615 315.076923 315.076923 0 11.815385 7.876923 19.692308 19.692308 19.692308s19.692308-7.876923 19.692307-19.692308z" p-id="68710" fill="#ffffff"></path></svg>